<svg width="135" height="30" viewBox="0 0 135 30" fill="none" xmlns="http://www.w3.org/2000/svg">
<path d="M38.612 6.03883V23.3824H34.3873V16.2424H27.8155V23.3824H23.5908V6.03883H27.8155V12.8329H34.3873V6.03883H38.612ZM54.6571 16.2671C54.6571 16.6624 54.6324 17.0741 54.583 17.5024H45.0219C45.0876 18.3588 45.3594 19.0177 45.8371 19.4788C46.3313 19.9235 46.9326 20.1459 47.6407 20.1459C48.6946 20.1459 49.4279 19.7012 49.8395 18.8118H54.336C54.1052 19.7176 53.6852 20.5329 53.076 21.2577C52.483 21.9824 51.7335 22.5506 50.8277 22.9624C49.922 23.3741 48.9091 23.58 47.7889 23.58C46.4385 23.58 45.2358 23.2918 44.1818 22.7153C43.1277 22.1388 42.3042 21.3153 41.7112 20.2447C41.1183 19.1741 40.8218 17.9224 40.8218 16.4894C40.8218 15.0565 41.1101 13.8047 41.6865 12.7341C42.2795 11.6635 43.103 10.84 44.1571 10.2635C45.2111 9.68705 46.4217 9.39883 47.7889 9.39883C49.123 9.39883 50.3089 9.67884 51.3466 10.2388C52.3842 10.7988 53.1911 11.5977 53.7677 12.6353C54.3607 13.6729 54.6571 14.8835 54.6571 16.2671ZM50.3336 15.1553C50.3336 14.4306 50.0866 13.8541 49.5924 13.4259C49.0983 12.9976 48.4807 12.7835 47.7395 12.7835C47.0314 12.7835 46.4301 12.9894 45.936 13.4012C45.4582 13.8129 45.1617 14.3977 45.0466 15.1553H50.3336ZM61.1107 5.10001V23.3824H56.886V5.10001H61.1107ZM68.3967 11.5482C68.8088 10.9059 69.377 10.3871 70.1014 9.99177C70.8263 9.59648 71.6746 9.39883 72.6461 9.39883C73.7826 9.39883 74.8123 9.68705 75.7344 10.2635C76.6569 10.84 77.3817 11.6635 77.9085 12.7341C78.452 13.8047 78.7238 15.0482 78.7238 16.4647C78.7238 17.8812 78.452 19.1329 77.9085 20.22C77.3817 21.2906 76.6569 22.1224 75.7344 22.7153C74.8123 23.2918 73.7826 23.58 72.6461 23.58C71.691 23.58 70.8426 23.3824 70.1014 22.9871C69.377 22.5918 68.8088 22.0812 68.3967 21.4553V29.9541H64.172V9.59648H68.3967V11.5482ZM74.4249 16.4647C74.4249 15.4106 74.1285 14.5871 73.5355 13.9941C72.9593 13.3847 72.2429 13.08 71.3861 13.08C70.5461 13.08 69.8296 13.3847 69.2367 13.9941C68.6605 14.6035 68.372 15.4353 68.372 16.4894C68.372 17.5435 68.6605 18.3753 69.2367 18.9847C69.8296 19.5941 70.5461 19.8988 71.3861 19.8988C72.2261 19.8988 72.9426 19.5941 73.5355 18.9847C74.1285 18.3588 74.4249 17.5188 74.4249 16.4647Z" fill="#1D344A"/>
<path d="M92.231 6.03882V9.42353H85.1651V13.08H90.4522V16.3659H85.1651V23.3824H80.9404V6.03882H92.231ZM96.5762 8.16353C95.835 8.16353 95.2257 7.94943 94.7479 7.52118C94.2869 7.07647 94.0562 6.53294 94.0562 5.89059C94.0562 5.23178 94.2869 4.68825 94.7479 4.26C95.2257 3.81529 95.835 3.59294 96.5762 3.59294C97.301 3.59294 97.894 3.81529 98.355 4.26C98.8328 4.68825 99.0715 5.23178 99.0715 5.89059C99.0715 6.53294 98.8328 7.07647 98.355 7.52118C97.894 7.94943 97.301 8.16353 96.5762 8.16353ZM98.6762 9.59647V23.3824H94.4515V9.59647H98.6762ZM105.963 11.8941C106.457 11.1365 107.074 10.5435 107.816 10.1153C108.557 9.67059 109.38 9.44824 110.286 9.44824V13.92H109.125C108.071 13.92 107.28 14.1506 106.753 14.6118C106.226 15.0565 105.963 15.8471 105.963 16.9835V23.3824H101.738V9.59647H105.963V11.8941ZM117.914 23.58C116.711 23.58 115.641 23.3741 114.702 22.9624C113.763 22.5506 113.022 21.9906 112.478 21.2824C111.935 20.5576 111.63 19.7506 111.564 18.8612H115.74C115.789 19.3388 116.011 19.7259 116.407 20.0224C116.802 20.3188 117.288 20.4671 117.864 20.4671C118.391 20.4671 118.795 20.3682 119.075 20.1706C119.371 19.9565 119.52 19.6847 119.52 19.3553C119.52 18.96 119.314 18.6718 118.902 18.4906C118.49 18.2929 117.823 18.0788 116.901 17.8482C115.912 17.6176 115.089 17.3788 114.43 17.1318C113.771 16.8682 113.203 16.4647 112.725 15.9212C112.248 15.3612 112.009 14.6118 112.009 13.6729C112.009 12.8824 112.223 12.1659 112.651 11.5235C113.096 10.8647 113.738 10.3459 114.578 9.96706C115.435 9.58822 116.448 9.39882 117.617 9.39882C119.347 9.39882 120.705 9.82707 121.694 10.6835C122.698 11.54 123.275 12.6765 123.423 14.0929H119.52C119.454 13.6153 119.239 13.2365 118.877 12.9565C118.531 12.6765 118.07 12.5365 117.494 12.5365C117 12.5365 116.621 12.6353 116.357 12.8329C116.094 13.0141 115.962 13.2694 115.962 13.5988C115.962 13.9941 116.168 14.2906 116.58 14.4882C117.008 14.6859 117.667 14.8835 118.556 15.0812C119.577 15.3447 120.409 15.6082 121.051 15.8718C121.694 16.1188 122.254 16.5306 122.731 17.1071C123.225 17.667 123.481 18.4247 123.497 19.38C123.497 20.187 123.266 20.9118 122.805 21.5541C122.361 22.18 121.71 22.6741 120.854 23.0365C120.014 23.3988 119.034 23.58 117.914 23.58ZM133.766 19.8V23.3824H131.616C130.084 23.3824 128.89 23.0118 128.034 22.2706C127.177 21.513 126.749 20.2859 126.749 18.5894V13.1047H125.069V9.59647H126.749V6.23647H130.974V9.59647H133.741V13.1047H130.974V18.6388C130.974 19.0506 131.073 19.347 131.27 19.5282C131.468 19.7094 131.797 19.8 132.259 19.8H133.766Z" fill="#7D83FF"/>
<mask id="mask0_521_1011" style="mask-type:luminance" maskUnits="userSpaceOnUse" x="0" y="3" width="19" height="27">
<path d="M18.9706 3.97058H0V29.5588H18.9706V3.97058Z" fill="white"/>
</mask>
<g mask="url(#mask0_521_1011)">
<path d="M10.0248 17.4074C10.0248 17.1265 10.0358 16.8464 10.0248 16.5656C10.0076 16.1975 9.74945 15.9442 9.41773 15.9496C9.08601 15.9549 8.8427 16.2128 8.84037 16.5878C8.84037 17.0469 8.86384 17.5061 8.84584 17.9652C8.80044 19.1238 8.08851 19.8921 7.00494 19.9763C5.87756 20.0643 4.87459 19.4613 4.48026 18.4252C4.34913 18.0656 4.25248 17.6949 4.19158 17.3178C3.91541 15.7391 4.13525 14.2293 5.20865 12.9896C6.60594 11.3734 8.46012 10.8362 10.5639 11.2418C12.6324 11.6405 13.9632 12.845 14.4984 14.8744C14.7793 15.9361 14.9164 17.0293 14.906 18.1259C14.902 18.5996 15.1203 18.8575 15.5053 18.8598C15.8901 18.8621 16.1507 18.5996 16.1139 18.1382C16.0318 17.112 15.9887 16.072 15.783 15.068C15.5115 13.7449 15.0163 12.4799 13.9131 11.5754C11.8907 9.9179 9.59376 9.51537 7.10663 10.3312C5.20317 10.9556 3.8849 12.2029 3.23945 14.0939C2.74344 15.5478 2.79977 17.0064 3.21598 18.4596C3.4812 19.3871 4.02259 20.1339 4.87692 20.6459C6.52847 21.6346 8.68622 21.1854 9.58437 19.6602C9.99117 18.9616 10.0819 18.1956 10.0248 17.4074ZM13.0596 18.1274C13.0166 17.0676 12.9814 16.0246 12.5863 15.0297C12.0472 13.6737 10.8385 12.8955 9.32619 12.92C7.81388 12.9445 6.64582 13.7464 6.14826 15.0894C5.85567 15.8776 5.88616 16.6926 5.95657 17.5076C5.96509 17.5809 5.98842 17.6517 6.02526 17.716C6.06215 17.7804 6.11173 17.8369 6.1712 17.8822C6.23067 17.9276 6.29875 17.9608 6.37154 17.98C6.44429 17.9993 6.52026 18.0041 6.595 17.9943C6.92906 17.9606 7.11837 17.7647 7.13089 17.4426C7.14656 17.0485 7.10429 16.6505 7.13089 16.258C7.18957 15.4728 7.47201 14.7925 8.21526 14.3823C9.70172 13.5605 11.3525 14.3923 11.6576 16.1287C11.8603 17.3133 11.8524 18.5234 11.6342 19.7054C11.3322 21.3843 10.3214 22.4939 8.58294 22.8238C7.84322 22.9687 7.0862 23.0107 6.33444 22.9485C4.61328 22.7916 3.20503 22.0379 2.24821 20.5885C1.51201 19.4735 1.27496 18.2162 1.18655 16.9153C1.15917 16.5067 0.922893 16.2832 0.550492 16.3031C0.207037 16.3184 -0.022193 16.5618 0.00284239 16.9536C0.0264351 17.4748 0.0831361 17.9942 0.172615 18.5085C0.598218 20.7056 1.69117 22.4465 3.80745 23.4604C5.54897 24.2946 7.36481 24.3933 9.2057 23.8951C11.02 23.4046 12.2053 22.2391 12.6817 20.4576C12.8859 19.7008 12.9391 18.9057 13.0596 18.1274ZM9.73538 6.89977C7.78728 6.89977 6.49953 7.14162 5.21491 7.75609C2.53768 9.03634 0.803193 11.0627 0.229727 13.9668C0.146014 14.3923 0.336127 14.6808 0.705398 14.7458C1.05824 14.8078 1.33129 14.5798 1.41499 14.1497C1.65684 12.838 2.27649 11.621 3.20112 10.6418C6.49873 7.11021 11.7985 7.45689 15.0585 10.2776C15.796 10.9097 16.3881 11.6878 16.7954 12.5603C16.9729 12.9429 17.3188 13.0784 17.6489 12.9246C17.9525 12.783 18.0502 12.4455 17.8891 12.0721C17.825 11.9189 17.7516 11.7697 17.6692 11.6252C15.7744 8.44636 12.8116 7.10104 9.73538 6.89977ZM18.9672 17.4655C18.9249 16.9536 18.8608 16.0773 18.7802 15.2019C18.7457 14.8254 18.4751 14.602 18.134 14.631C17.7929 14.6602 17.5816 14.9104 17.5957 15.2999C17.6043 15.5294 17.6301 15.759 17.6536 15.9886C17.9125 18.4695 17.6966 20.9038 16.8212 23.2584C16.0318 25.3774 14.6556 27.0028 12.4588 27.833C11.7499 28.1017 10.9832 28.2264 10.2392 28.4047C9.88481 28.4896 9.67825 28.7223 9.70798 29.0475C9.73772 29.3727 9.97944 29.5694 10.3574 29.5656C10.4621 29.565 10.5667 29.5571 10.6703 29.5418C13.903 29.023 16.2555 27.3548 17.6332 24.4231C18.6112 22.3271 18.9249 20.1064 18.9703 17.4655H18.9672ZM7.48763 27.1841C8.66451 27.1879 9.83187 26.9774 10.93 26.5635C13.396 25.6337 15.0037 23.9334 15.7024 21.4302C15.8299 20.9711 15.6625 20.6382 15.2776 20.5495C14.9326 20.4729 14.6713 20.6688 14.5437 21.1127C13.7997 23.7221 11.9862 25.2136 9.34573 25.796C7.26078 26.2551 5.23057 25.9949 3.25119 25.2496C3.08376 25.1868 2.90148 25.1172 2.72936 25.1256C2.43988 25.1394 2.25056 25.3246 2.20674 25.6077C2.15746 25.9291 2.31862 26.1434 2.61983 26.2651C4.10396 26.8719 5.64753 27.1872 7.49076 27.1872L7.48763 27.1841ZM9.14862 3.96738C6.66929 3.97503 4.44819 4.72879 2.46961 6.18123C2.09252 6.45824 2.00568 6.80183 2.22317 7.09415C2.44067 7.38648 2.80759 7.40024 3.18156 7.1332C6.07626 5.05707 9.23464 4.61479 12.6121 5.72284C13.3945 5.97842 14.1119 6.41615 14.848 6.7942C15.2518 7.0008 15.5772 6.98624 15.7783 6.69087C15.9919 6.37865 15.8909 6.05571 15.4974 5.79171C15.4114 5.73432 15.3245 5.67846 15.2354 5.62565C13.4069 4.52549 11.2983 3.95181 9.1517 3.97043L9.14862 3.96738Z" fill="white"/>
<path d="M10.0249 17.4075C10.0819 18.1957 9.99119 18.9617 9.58046 19.6604C8.68231 21.1855 6.52456 21.6347 4.87302 20.646C4.01869 20.1341 3.4773 19.3872 3.21208 18.4597C2.79586 17.0058 2.74267 15.5518 3.23555 14.094C3.881 12.2031 5.19927 10.9565 7.10272 10.3313C9.59065 9.51555 11.8876 9.91804 13.9092 11.5756C15.0124 12.4801 15.5076 13.7451 15.7791 15.0682C15.9848 16.0729 16.0279 17.1121 16.11 18.1383C16.1468 18.5975 15.887 18.863 15.5014 18.8599C15.1156 18.8569 14.8981 18.5998 14.9021 18.1261C14.9125 17.0294 14.7754 15.9362 14.4945 14.8746C13.9593 12.8451 12.6285 11.6406 10.56 11.2419C8.45621 10.8363 6.60203 11.3736 5.20474 12.9897C4.13213 14.2294 3.91229 15.7393 4.18768 17.318C4.24858 17.6951 4.34522 18.0657 4.47635 18.4253C4.86755 19.4614 5.87365 20.0644 7.00103 19.9764C8.0846 19.8922 8.79653 19.1239 8.84193 17.9654C8.85993 17.5062 8.83412 17.0471 8.83646 16.5879C8.83646 16.213 9.07897 15.9543 9.41383 15.9497C9.74868 15.9451 10.0037 16.1977 10.0209 16.5657C10.0358 16.8466 10.0249 17.1266 10.0249 17.4075Z" fill="#7D83FF"/>
<path d="M13.06 18.1276C12.9395 18.9059 12.8863 19.701 12.6837 20.4585C12.2072 22.24 11.0219 23.4055 9.20768 23.896C7.36365 24.3942 5.54781 24.2955 3.8094 23.4614C1.69703 22.4474 0.601735 20.7065 0.174567 18.5095C0.0850879 17.9951 0.0283882 17.4757 0.00479551 16.9545C-0.0202399 16.5627 0.208991 16.3193 0.552446 16.304C0.924848 16.2864 1.16112 16.5099 1.1885 16.9162C1.27691 18.2171 1.51396 19.4714 2.25016 20.5894C3.20776 22.0387 4.61759 22.7925 6.33641 22.9494C7.08818 23.0117 7.84515 22.9697 8.58491 22.8247C10.3264 22.4948 11.3372 21.3852 11.6361 19.7063C11.8543 18.5242 11.8623 17.3142 11.6596 16.1295C11.356 14.3932 9.70757 13.5614 8.21719 14.3833C7.47394 14.7934 7.19154 15.4737 7.13287 16.2589C7.10313 16.6515 7.14535 17.0494 7.13287 17.4435C7.12034 17.7656 6.93098 17.9615 6.59693 17.9952C6.52223 18.0051 6.44626 18.0002 6.37347 17.9809C6.30072 17.9617 6.2326 17.9284 6.17313 17.8831C6.1137 17.8378 6.06407 17.7813 6.02723 17.717C5.9904 17.6527 5.96701 17.5818 5.95854 17.5085C5.88813 16.6935 5.8576 15.8786 6.15019 15.0903C6.64779 13.7474 7.82366 12.9476 9.32816 12.9209C10.8326 12.8941 12.0492 13.6747 12.5882 15.0307C12.9833 16.0247 13.0177 17.0647 13.06 18.1276Z" fill="#1D344A"/>
<path d="M9.73516 6.89995C12.8113 7.10121 15.7742 8.44649 17.669 11.6253C17.7514 11.7699 17.8248 11.9191 17.8888 12.0722C18.05 12.4457 17.9522 12.7831 17.6487 12.9247C17.3185 13.0777 16.9727 12.9408 16.7951 12.5605C16.3878 11.6879 15.7958 10.9099 15.0583 10.2777C11.7982 7.45702 6.49851 7.11039 3.2009 10.642C2.27628 11.6212 1.65662 12.8381 1.41478 14.1499C1.33654 14.58 1.05803 14.808 0.705181 14.746C0.335908 14.6809 0.145795 14.3925 0.229507 13.967C0.802977 11.0629 2.53746 9.03652 5.21469 7.75627C6.49931 7.14176 7.78706 6.8992 9.73516 6.89995Z" fill="#1D344A"/>
<path d="M18.97 17.4657C18.9246 20.1065 18.6109 22.3273 17.6314 24.4164C16.2568 27.348 13.9042 29.0163 10.6684 29.5351C10.5648 29.5503 10.4602 29.5583 10.3554 29.5588C9.97758 29.5627 9.73661 29.3683 9.70608 29.0407C9.6756 28.7132 9.8829 28.4829 10.2373 28.3979C10.9813 28.2196 11.7481 28.0919 12.4569 27.8263C14.6537 26.996 16.0299 25.3706 16.8193 23.2517C17.6947 20.9009 17.9107 18.4666 17.6517 15.9819C17.6282 15.7523 17.6024 15.5227 17.5938 15.2932C17.5797 14.9036 17.7863 14.6542 18.1321 14.6243C18.4779 14.5945 18.7439 14.8187 18.7783 15.1952C18.8636 16.0775 18.9277 16.9537 18.97 17.4657Z" fill="#1D344A"/>
<path d="M7.49107 27.1873C5.64784 27.1873 4.10423 26.8721 2.6201 26.2691C2.31889 26.1466 2.15773 25.9331 2.20702 25.6117C2.25083 25.3285 2.44173 25.1433 2.72963 25.1296C2.90175 25.1212 3.08404 25.1908 3.25146 25.2536C5.23084 25.9989 7.26104 26.2599 9.34604 25.7999C11.9865 25.2176 13.7984 23.7277 14.5464 21.1197C14.6739 20.6759 14.9375 20.4769 15.2802 20.5565C15.6651 20.6452 15.8325 20.9774 15.705 21.4373C15.0064 23.9404 13.3986 25.6408 10.9326 26.5705C9.83447 26.9831 8.66742 27.1923 7.49107 27.1873Z" fill="#1D344A"/>
<path d="M9.1521 3.97058C11.2998 3.9516 13.4095 4.52558 15.2388 5.62658C15.328 5.67939 15.4149 5.73524 15.5009 5.79264C15.8921 6.05664 15.9954 6.37958 15.7818 6.6918C15.5807 6.98717 15.2552 7.00173 14.8516 6.79508C14.1153 6.41937 13.3956 5.98164 12.6156 5.72377C9.23813 4.61567 6.07666 5.05799 3.18505 7.13408C2.81108 7.40192 2.4465 7.39124 2.22666 7.09508C2.00682 6.79892 2.09601 6.45917 2.47311 6.18215C4.45168 4.73201 6.67278 3.979 9.1521 3.97058Z" fill="#7D83FF"/>
</g>
</svg>
