<?xml version="1.0" encoding="UTF-8" standalone="no"?>
<svg
   id="Layer_1"
   viewBox="0 0 283.4646 283.4646"
   version="1.1"
   sodipodi:docname="BD_Dentistry_reimagined_Portrait_Grey-01.svg"
   inkscape:version="1.1 (c4e8f9e, 2021-05-24)"
   xmlns:inkscape="http://www.inkscape.org/namespaces/inkscape"
   xmlns:sodipodi="http://sodipodi.sourceforge.net/DTD/sodipodi-0.dtd"
   xmlns="http://www.w3.org/2000/svg"
   xmlns:svg="http://www.w3.org/2000/svg">
  <sodipodi:namedview
     id="namedview875"
     pagecolor="#ffffff"
     bordercolor="#666666"
     borderopacity="1.0"
     inkscape:pageshadow="2"
     inkscape:pageopacity="0.0"
     inkscape:pagecheckerboard="0"
     showgrid="false"
     inkscape:zoom="0.60468626"
     inkscape:cx="-37.209379"
     inkscape:cy="219.1219"
     inkscape:window-width="1440"
     inkscape:window-height="763"
     inkscape:window-x="539"
     inkscape:window-y="1105"
     inkscape:window-maximized="1"
     inkscape:current-layer="Layer_1" />
  <defs
     id="defs826">
    <style
       id="style824">.cls-1{fill:#333;}</style>
  </defs>
  <path
     class="cls-1"
     d="m170.5882,108.965c-.002-2.553-.004-5.105-.004-7.658-.001-1.188-.664-1.996-1.732-2.108-.091-.009-.18-.014-.267-.014-1.172,0-1.959.841-1.96,2.092-.002,4.224-.001,8.448-.001,12.672l.001,6.467-.392-.297c-.207-.157-.402-.306-.588-.449-.378-.29-.735-.565-1.093-.82-3.021-2.157-6.157-3.251-9.32-3.251-2.193,0-4.429.528-6.647,1.571-1.984.933-3.639,2.108-4.964,3.518.827,1.224,1.493,2.562,1.994,4.004,2.059-3.058,5.54-5.072,9.48-5.072h.052c3.087.013,5.974,1.212,8.131,3.376,2.158,2.164,3.346,5.053,3.347,8.137,0,3.046-1.198,5.918-3.375,8.087-2.176,2.169-5.056,3.363-8.12,3.363-3.955-.002-7.448-2.011-9.512-5.058-1.154-1.702-1.859-3.729-1.951-5.912-.007-.163-.013-.325-.013-.489,0-.087.005-.173.007-.259-.005-.152-.01-.304-.019-.456-.164-2.693-.822-5.057-1.966-7.082-.54-.956-1.19-1.835-1.945-2.639-1.326-1.41-2.981-2.585-4.965-3.518-2.217-1.043-4.453-1.571-6.646-1.571-3.163,0-6.299,1.094-9.32,3.251-.359.255-.716.53-1.094.82-.186.143-.38.292-.587.449l-.392.297v-6.467c.001-4.224.001-8.448-.001-12.672,0-1.251-.788-2.092-1.959-2.092-.088,0-.177.005-.268.014-1.067.112-1.731.92-1.731,2.108-.001,2.553-.003,5.105-.005,7.658-.005,7.271-.011,14.789.014,22.183.014,4.243,1.573,7.934,4.634,10.972,2.839,2.819,6.8,4.436,10.865,4.436,2.143,0,4.201-.435,6.118-1.292,2.092-.937,3.894-2.256,5.34-3.845-.823-1.213-1.494-2.52-2-3.893-2.065,3.046-5.558,5.055-9.512,5.057-3.064,0-5.945-1.194-8.121-3.363-2.176-2.169-3.374-5.041-3.374-8.087.001-3.084,1.189-5.973,3.346-8.137,2.157-2.164,5.044-3.363,8.131-3.376h.052c3.94,0,7.422,2.014,9.48,5.072,1.192,1.77,1.904,3.891,1.954,6.173.002.086.007.172.007.259,0,.164-.006.326-.013.489.05,2.556.751,4.999,1.992,7.151.546.947,1.196,1.837,1.941,2.656,1.446,1.588,3.249,2.907,5.34,3.844,1.917.857,3.975,1.292,6.118,1.292,4.066,0,8.026-1.617,10.866-4.436,3.061-3.038,4.62-6.729,4.634-10.972.024-7.394.019-14.912.013-22.183"
     id="path828"
     style="fill:#000000"
     inkscape:export-filename="/Users/danielfiuzadosil/Desktop/bd_logo.png"
     inkscape:export-xdpi="800"
     inkscape:export-ydpi="800" />
  <g
     id="g872"
     style="fill:#000000"
     inkscape:export-filename="/Users/danielfiuzadosil/Desktop/bd_logo.png"
     inkscape:export-xdpi="800"
     inkscape:export-ydpi="800">
    <path
       class="cls-1"
       d="m46.9167,179.9687v-12.9795h4.6074c1.4014,0,2.5713.2891,3.5098.8682s1.6426,1.3594,2.1113,2.3398c.4688.9814.7041,2.0693.7041,3.2637,0,1.3164-.2588,2.4619-.7764,3.4365-.5186.9756-1.2529,1.7305-2.2031,2.2666-.9512.5371-2.0664.8047-3.3457.8047h-4.6074Zm8.8486-6.5078c0-.9141-.167-1.7217-.5029-2.4229-.335-.7002-.8164-1.249-1.4434-1.6445-.6289-.3965-1.3926-.5947-2.2949-.5947h-2.5596v9.3604h2.5596c.9141,0,1.6846-.207,2.3125-.6221.627-.4141,1.1055-.9746,1.4355-1.6816.3281-.707.4932-1.5049.4932-2.3945Z"
       id="path830"
       style="fill:#000000" />
    <path
       class="cls-1"
       d="m64.2663,180.1513c-.7441,0-1.417-.1299-2.0205-.3896-.6025-.2607-1.124-.6172-1.5635-1.0713-.4375-.4531-.7764-.9736-1.0137-1.5605-.2383-.5859-.3574-1.2119-.3574-1.8779,0-.8916.207-1.708.6221-2.4492.4141-.7412.9932-1.3379,1.7373-1.79.7422-.4521,1.6143-.6777,2.6133-.6777,1,0,1.8613.2266,2.5869.6787s1.2891,1.0469,1.6914,1.7832c.4014.7363.6025,1.5264.6025,2.3711,0,.1455-.0059.2803-.0176.4072s-.0254.2324-.0371.3164h-7.6592c.0361.5537.1924,1.0381.4658,1.4531.2744.415.625.7393,1.0508.9746.4268.2344.8838.3516,1.3711.3516.5371,0,1.0449-.1338,1.5273-.4023.4805-.2676.8066-.6211.9775-1.0605l1.7188.4941c-.208.4629-.5205.8809-.9414,1.252-.4209.3721-.917.6641-1.4902.8779-.5732.2129-1.1943.3193-1.8643.3193Zm-2.8711-5.5938h5.7773c-.0371-.5381-.1914-1.0127-.4658-1.4248s-.6221-.7344-1.042-.9678c-.4209-.2334-.8867-.3496-1.3984-.3496-.5,0-.96.1162-1.3809.3496-.4199.2334-.7646.5557-1.0332.9678-.2676.4121-.4199.8867-.457,1.4248Z"
       id="path832"
       style="fill:#000000" />
    <path
       class="cls-1"
       d="m79.5671,179.9687h-2.0117v-5.2949c0-.8789-.1426-1.5234-.4297-1.9336-.2861-.4092-.709-.6143-1.2695-.6143-.3906,0-.7773.0957-1.1611.2881-.3838.1914-.7285.4521-1.0332.7812-.3047.3301-.5244.71-.6582,1.1416v5.6318h-2.0107v-9.4883h1.8281v1.918c.2441-.4219.5635-.7871.96-1.0947.3955-.3086.8438-.5469,1.3428-.7158.5-.1689,1.0303-.2529,1.5918-.2529.5723,0,1.0449.1025,1.416.3076s.6641.4863.877.8418c.2139.3564.3594.7666.4395,1.2314.0791.4648.1191.957.1191,1.4756v5.7773Z"
       id="path834"
       style="fill:#000000" />
    <path
       class="cls-1"
       d="m87.3366,179.5117c-.1719.085-.3848.1768-.6406.2744s-.5449.1826-.8682.2559-.6553.1094-.9961.1094c-.415,0-.7979-.0723-1.1514-.2178s-.6367-.3789-.8506-.7012c-.2139-.3213-.3193-.7373-.3193-1.2471v-5.9502h-1.2617v-1.5547h1.2617v-3.1436h2.0098v3.1436h2.084v1.5547h-2.084v5.3066c.0254.3271.1309.5693.3203.7275.1895.1572.4238.2354.7041.2354s.5479-.0479.8037-.1455.4453-.1768.5674-.2383l.4209,1.5908Z"
       id="path836"
       style="fill:#000000" />
    <path
       class="cls-1"
       d="m88.9089,168.8359v-2.2129h2.0098v2.2129h-2.0098Zm0,11.1328v-9.5615h2.0098v9.5615h-2.0098Z"
       id="path838"
       style="fill:#000000" />
    <path
       class="cls-1"
       d="m96.9147,180.1513c-.8047,0-1.5664-.1309-2.2852-.3926-.7188-.2627-1.334-.6553-1.8457-1.1797l.749-1.3525c.5488.4873,1.1006.8408,1.6553,1.0605.5537.2188,1.1055.3291,1.6543.3291.5605,0,1.0176-.1045,1.3711-.3135s.5293-.5166.5293-.9229c0-.3018-.0908-.5244-.2734-.6699-.1836-.1445-.4482-.2715-.7949-.3799-.3477-.1084-.7656-.2295-1.2529-.3623-.6826-.2051-1.2549-.4199-1.7178-.6436-.4639-.2227-.8115-.498-1.043-.8242-.2314-.3252-.3477-.7422-.3477-1.249,0-.6162.1582-1.1416.4766-1.5762.3164-.4346.7578-.7666,1.3242-.9961.5674-.2295,1.2227-.3438,1.9658-.3438.6943,0,1.3369.1064,1.9287.3193.5908.2139,1.1113.5459,1.5625.9961l-.8594,1.335c-.4258-.3896-.8613-.6768-1.3066-.8594s-.9238-.2744-1.4355-.2744c-.292,0-.5723.0332-.8398.0996-.2686.0664-.4912.1865-.668.3613s-.2646.4199-.2646.7324c0,.2539.0732.459.2197.6152.1455.1562.3652.2891.6582.3975.292.1084.6514.2295,1.0781.3623.7432.2168,1.377.4307,1.9004.6416.5244.2109.9297.4824,1.2168.8135.2852.332.4297.7871.4297,1.3652,0,.916-.3457,1.6309-1.0332,2.1426-.6895.5127-1.6055.7686-2.752.7686Z"
       id="path840"
       style="fill:#000000" />
    <path
       class="cls-1"
       d="m107.9753,179.5117c-.1709.085-.3838.1768-.6396.2744-.2568.0977-.5459.1826-.8682.2559-.3232.0732-.6562.1094-.9961.1094-.415,0-.7988-.0723-1.1523-.2178s-.6367-.3789-.8496-.7012c-.2139-.3213-.3203-.7373-.3203-1.2471v-5.9502h-1.2617v-1.5547h1.2617v-3.1436h2.0107v3.1436h2.084v1.5547h-2.084v5.3066c.0244.3271.1309.5693.3193.7275.1895.1572.4238.2354.7051.2354.2793,0,.5479-.0479.8037-.1455s.4443-.1768.5674-.2383l.4199,1.5908Z"
       id="path842"
       style="fill:#000000" />
    <path
       class="cls-1"
       d="m114.9225,172.1445c-.7803.0117-1.4727.1885-2.0752.5303-.6035.3408-1.0322.8223-1.2891,1.4443v5.8496h-2.0107v-9.4883h1.8652v2.0664c.3281-.6582.7617-1.1855,1.2969-1.582.5371-.3955,1.1035-.6123,1.7012-.6484h.3008c.0801,0,.1494.0059.2109.0186v1.8096Z"
       id="path844"
       style="fill:#000000" />
    <path
       class="cls-1"
       d="m116.8962,182.2178c.1826.0234.3623.0508.5391.082.1768.0303.3203.0459.4297.0459.207,0,.3867-.0645.54-.1914.1523-.127.3066-.3594.4648-.6973.1592-.3379.3535-.8271.5859-1.4668l-3.9307-9.5098h2.1025l2.9248,7.4736,2.5957-7.4736h1.9385l-4.333,11.71c-.1338.3516-.3291.6758-.585.9727s-.5732.5303-.9512.7012c-.377.1689-.8223.2539-1.334.2539-.1465,0-.2988-.0117-.457-.0361s-.3359-.0615-.5303-.1094v-1.7549Z"
       id="path846"
       style="fill:#000000" />
    <path
       class="cls-1"
       d="m125.653,181.7422l.4395-1.8828h-.6582v-2.2305h1.8086v2.2305l-.6387,1.8828h-.9512Z"
       id="path848"
       style="fill:#000000" />
    <path
       class="cls-1"
       d="m139.821,172.1445c-.7803.0117-1.4727.1885-2.0752.5303-.6035.3408-1.0322.8223-1.2891,1.4443v5.8496h-2.0107v-9.4883h1.8652v2.0664c.3281-.6582.7617-1.1855,1.2969-1.582.5371-.3955,1.1035-.6123,1.7012-.6484h.3008c.0801,0,.1494.0059.2109.0186v1.8096Z"
       id="path850"
       style="fill:#000000" />
    <path
       class="cls-1"
       d="m145.6335,180.1513c-.7422,0-1.416-.1299-2.0195-.3896-.6035-.2607-1.124-.6172-1.5625-1.0713-.4395-.4531-.7773-.9736-1.0156-1.5605-.2373-.5859-.3555-1.2119-.3555-1.8779,0-.8916.207-1.708.6211-2.4492s.9932-1.3379,1.7363-1.79c.7441-.4521,1.6152-.6777,2.6152-.6777.998,0,1.8613.2266,2.5859.6787s1.2891,1.0469,1.6914,1.7832.6035,1.5264.6035,2.3711c0,.1455-.0068.2803-.0186.4072-.0127.127-.0244.2324-.0361.3164h-7.6602c.0361.5537.1914,1.0381.4658,1.4531s.624.7393,1.0518.9746c.4258.2344.8828.3516,1.3711.3516.5352,0,1.0449-.1338,1.5254-.4023.4824-.2676.8076-.6211.9785-1.0605l1.7188.4941c-.207.4629-.5215.8809-.9414,1.252-.4209.3721-.918.6641-1.4902.8779-.5723.2129-1.1943.3193-1.8652.3193Zm-2.8691-5.5938h5.7764c-.0361-.5381-.1924-1.0127-.4658-1.4248-.2744-.4121-.6211-.7344-1.043-.9678-.4199-.2334-.8857-.3496-1.3984-.3496-.499,0-.959.1162-1.3789.3496-.4219.2334-.7656.5557-1.0332.9678-.2686.4121-.4209.8867-.457,1.4248Z"
       id="path852"
       style="fill:#000000" />
    <path
       class="cls-1"
       d="m152.362,168.8359v-2.2129h2.0098v2.2129h-2.0098Zm0,11.1328v-9.5615h2.0098v9.5615h-2.0098Z"
       id="path854"
       style="fill:#000000" />
    <path
       class="cls-1"
       d="m171.5934,179.9687h-2.0107v-5.2949c0-.8789-.1465-1.5234-.4395-1.9336-.292-.4092-.7188-.6143-1.2793-.6143s-1.082.208-1.5625.624c-.4824.415-.8203.9541-1.0156,1.6172v5.6016h-2.0098v-5.2949c0-.8789-.1465-1.5234-.4395-1.9336-.293-.4092-.7129-.6143-1.2617-.6143-.5605,0-1.082.2041-1.5625.6113-.4824.4072-.8262.9404-1.0332,1.5996v5.6318h-2.0107v-9.4883h1.8281v1.918c.3779-.6631.874-1.1738,1.4893-1.5293.6152-.3564,1.3203-.5342,2.1123-.5342s1.417.2051,1.874.6152c.457.4111.7402.9238.8496,1.5391.4141-.7002.9238-1.2344,1.5264-1.6025.6035-.3682,1.2949-.5518,2.0752-.5518.5605,0,1.0293.1025,1.4082.3076.377.2051.6699.4863.877.8418.207.3564.3564.7666.4473,1.2314.0918.4648.1377.957.1377,1.4756v5.7773Z"
       id="path856"
       style="fill:#000000" />
    <path
       class="cls-1"
       d="m173.403,177.1992c0-.6045.1738-1.1328.5205-1.585.3477-.4531.8252-.8037,1.4346-1.0508.6094-.248,1.3164-.3721,2.1211-.3721.4268,0,.8623.0312,1.3066.0918.4453.0615.8379.1582,1.1797.293v-.6006c0-.6592-.2012-1.1758-.6035-1.5479s-.9805-.5576-1.7363-.5576c-.5371,0-1.042.0947-1.5176.2832-.4746.1895-.9805.4541-1.5176.7959l-.6758-1.3535c.6328-.4258,1.2705-.7432,1.9102-.9502s1.3125-.3105,2.0195-.3105c1.2803,0,2.2891.334,3.0264,1.0029s1.1064,1.6182,1.1064,2.8467v3.5244c0,.2295.0391.3916.1182.4883s.2158.1504.4111.1631v1.6084c-.1826.0361-.3477.0605-.4932.0732-.1465.0117-.2686.0186-.3662.0186-.4258,0-.749-.1035-.9688-.3115-.2188-.207-.3477-.4502-.3838-.7305l-.0547-.5488c-.415.5361-.9443.9502-1.5908,1.2432-.6465.292-1.2979.4385-1.9561.4385-.6338,0-1.2002-.1299-1.7002-.3887-.5-.2598-.8896-.6133-1.1699-1.0605-.2803-.4463-.4199-.9473-.4199-1.5029Zm6.0879.5723c.1455-.1553.2617-.3105.3467-.4668s.1279-.2939.1279-.4141v-1.0781c-.3418-.1318-.7012-.2305-1.0781-.2969-.3789-.0654-.75-.0986-1.1152-.0986-.7314,0-1.3262.1436-1.7832.4316-.457.2871-.6855.6826-.6855,1.1865,0,.2754.0762.5391.2285.791s.3721.4551.6582.6113c.2871.1553.6426.2334,1.0703.2334.4385,0,.8594-.084,1.2607-.252.4023-.168.7256-.3828.9697-.6475Z"
       id="path858"
       style="fill:#000000" />
    <path
       class="cls-1"
       d="m188.3747,180.1513c-.6455,0-1.2373-.1309-1.7734-.3926-.5361-.2627-.9961-.6191-1.3799-1.0693-.3848-.4512-.6826-.9697-.8965-1.5547-.2129-.585-.3193-1.2002-.3193-1.8457,0-.6826.1104-1.3223.3291-1.9199.2188-.5967.5273-1.124.9238-1.5811.3945-.457.8613-.8135,1.3984-1.0693.5352-.2559,1.1328-.3838,1.791-.3838.7676,0,1.4414.1797,2.0195.5391.5791.3594,1.0576.832,1.4355,1.417v-1.8105h1.7734v9.2373c0,.9209-.2227,1.7031-.668,2.3457-.4443.6426-1.0508,1.1338-1.8184,1.4727-.7676.3398-1.6328.5098-2.5957.5098-1.0605,0-1.9375-.1836-2.6328-.5488s-1.2861-.8652-1.7734-1.499l1.1338-1.0605c.3652.5117.8369.9023,1.417,1.1699.5781.2686,1.1973.4023,1.8555.4023.5488,0,1.0566-.0967,1.5264-.29.4688-.1943.8438-.4932,1.124-.8975.2803-.4053.4199-.917.4199-1.5361v-1.4629c-.3408.5732-.8105,1.0215-1.4072,1.3438-.5967.3232-1.2246.4844-1.8828.4844Zm.6582-1.627c.3047,0,.5967-.0518.8779-.1553.2793-.1035.5391-.2432.7764-.4209.2373-.1758.4424-.377.6123-.6025.1709-.2256.293-.4668.3652-.7227v-2.5039c-.1582-.415-.3828-.7773-.6758-1.0879s-.6211-.5518-.9873-.7227c-.3662-.1699-.7373-.2559-1.1152-.2559-.4385,0-.8311.0947-1.1787.2832-.3477.1895-.6426.4395-.8867.75s-.4336.6611-.5664,1.0508c-.1348.3906-.2012.793-.2012,1.207,0,.4385.0762.8467.2285,1.2246s.3623.7158.6309,1.0146c.2676.2988.584.5303.9502.6943.3662.165.7549.2471,1.1699.2471Z"
       id="path860"
       style="fill:#000000" />
    <path
       class="cls-1"
       d="m196.2721,168.8359v-2.2129h2.0107v2.2129h-2.0107Zm0,11.1328v-9.5615h2.0107v9.5615h-2.0107Z"
       id="path862"
       style="fill:#000000" />
    <path
       class="cls-1"
       d="m209.4528,179.9687h-2.0107v-5.2949c0-.8789-.1436-1.5234-.4297-1.9336-.2871-.4092-.71-.6143-1.2705-.6143-.3896,0-.7764.0957-1.1611.2881-.3838.1914-.7285.4521-1.0332.7812-.3047.3301-.5234.71-.6582,1.1416v5.6318h-2.0098v-9.4883h1.8281v1.918c.2432-.4219.5625-.7871.959-1.0947.3965-.3086.8438-.5469,1.3438-.7158s1.0293-.2529,1.5908-.2529c.5732,0,1.0449.1025,1.417.3076.3711.2051.6641.4863.877.8418.2129.3564.3594.7666.4395,1.2314.0781.4648.1182.957.1182,1.4756v5.7773Z"
       id="path864"
       style="fill:#000000" />
    <path
       class="cls-1"
       d="m216.3073,180.1513c-.7422,0-1.416-.1299-2.0195-.3896-.6035-.2607-1.124-.6172-1.5625-1.0713-.4395-.4531-.7773-.9736-1.0156-1.5605-.2373-.5859-.3555-1.2119-.3555-1.8779,0-.8916.207-1.708.6211-2.4492s.9932-1.3379,1.7363-1.79c.7441-.4521,1.6152-.6777,2.6152-.6777.998,0,1.8613.2266,2.5859.6787s1.2891,1.0469,1.6914,1.7832.6035,1.5264.6035,2.3711c0,.1455-.0068.2803-.0186.4072-.0127.127-.0244.2324-.0361.3164h-7.6602c.0361.5537.1914,1.0381.4658,1.4531s.624.7393,1.0518.9746c.4258.2344.8828.3516,1.3711.3516.5352,0,1.0449-.1338,1.5254-.4023.4824-.2676.8076-.6211.9785-1.0605l1.7188.4941c-.207.4629-.5215.8809-.9414,1.252-.4209.3721-.918.6641-1.4902.8779-.5723.2129-1.1943.3193-1.8652.3193Zm-2.8691-5.5938h5.7764c-.0361-.5381-.1924-1.0127-.4658-1.4248-.2744-.4121-.6211-.7344-1.043-.9678-.4199-.2334-.8857-.3496-1.3984-.3496-.499,0-.959.1162-1.3789.3496-.4219.2334-.7656.5557-1.0332.9678-.2686.4121-.4209.8867-.457,1.4248Z"
       id="path866"
       style="fill:#000000" />
    <path
       class="cls-1"
       d="m222.4323,175.2431c0-.9053.1855-1.7295.5566-2.4727.373-.7422.8809-1.334,1.5273-1.7744.6455-.4414,1.3887-.6611,2.2305-.6611.7305,0,1.3926.1885,1.9834.5664s1.0508.8467,1.3799,1.4072v-5.6855h2.0117v11.0791c0,.2314.042.3955.127.4932.0859.0977.2256.1523.4209.165v1.6084c-.3779.0605-.6709.0918-.8779.0918-.377,0-.6973-.1104-.959-.3291-.2627-.2197-.4004-.4814-.4121-.7861l-.0176-.7129c-.3652.6094-.8594,1.0811-1.4805,1.416-.6221.3359-1.2686.5029-1.9385.5029-.6582,0-1.2646-.127-1.8193-.3799-.5547-.2539-1.0352-.6104-1.4434-1.0684-.4092-.459-.7256-.9844-.9512-1.5762s-.3379-1.2197-.3379-1.8838Zm7.6777,1.3154v-2.4688c-.1348-.3848-.3506-.7305-.6484-1.0361-.2988-.3066-.6348-.5498-1.0059-.7305-.3721-.1797-.7402-.2705-1.1055-.2705-.4277,0-.8145.0908-1.1621.2705-.3467.1807-.6455.4209-.8945.7217-.25.2998-.4424.6426-.5762,1.0264-.1348.3848-.2012.7871-.2012,1.208,0,.4326.0723.8379.2188,1.2168.1465.3779.3574.7148.6309,1.0088.2744.2939.5918.5225.9512.6846s.752.2441,1.1787.2441c.2686,0,.54-.0488.8135-.1445.2744-.0957.5361-.2285.7861-.3965s.4639-.3662.6396-.5947c.1768-.2285.3027-.4746.375-.7393Z"
       id="path868"
       style="fill:#000000" />
    <path
       class="cls-1"
       d="m234.7721,179.9687v-2.3398h1.6631v2.3398h-1.6631Z"
       id="path870"
       style="fill:#000000" />
  </g>
</svg>
