<?xml version="1.0" encoding="UTF-8"?><svg id="Layer_1" xmlns="http://www.w3.org/2000/svg" viewBox="0 0 600 600"><defs><style>.cls-1{fill:#1d1d1b;}</style></defs><path class="cls-1" d="m97.581,304.966l17.2811,23.6918h-17.2811l-15.6088-21.1834-9.7555-13.7968h12.8215c9.198,0,16.7236-7.5257,16.7236-16.7237s-7.5256-16.7237-16.7236-16.7237h-19.2322v68.567h-13.797v-82.5034h33.1686c16.8632,0,30.66,13.797,30.66,30.7994,0,12.1246-7.5256,22.995-18.2565,27.8728Z"/><path class="cls-1" d="m288.0917,276.6748c0,16.8629-13.7972,30.6601-30.6603,30.6601h-7.1072l-9.6164-13.7972h16.7236c9.198,0,16.7236-7.5255,16.7236-16.7235s-7.5256-16.7237-16.7236-16.7237h-19.232v68.5672h-13.7972v-82.5036h33.0292c16.8631-.1394,30.6603,13.5183,30.6603,30.5207Z"/><path class="cls-1" d="m333.5243,328.5179h13.9363v-44.8752l-13.9363-19.3716v64.2468Zm-34.4231-68.5671h82.643v-13.9364h-82.643v13.9364Z"/><path class="cls-1" d="m429.4071,260.2302c-15.0512,0-27.176,12.1247-27.176,27.1759s12.1248,27.1759,27.176,27.1759,27.176-12.1244,27.176-27.1759-12.2643-27.1759-27.176-27.1759Zm41.2518,27.0366c0,22.7165-18.5355,41.2515-41.2518,41.2515s-41.3912-18.5351-41.3912-41.2515c0-22.8557,18.5355-41.3911,41.3912-41.3911s41.2518,18.5354,41.2518,41.3911Z"/><path class="cls-1" d="m529.7483,304.966l17.2836,23.6918h-17.2836l-15.6091-21.1834-9.8945-13.7968h12.9638c9.195,0,16.7198-7.5257,16.7198-16.7237s-7.5248-16.7237-16.7198-16.7237h-19.2337v68.567h-13.7989v-82.5034h33.1683c16.864,0,30.6629,13.797,30.6629,30.7994.1399,12.1246-7.3891,22.995-18.2587,27.8728Z"/><path class="cls-1" d="m169.6321,246.0144l-41.2518,82.5035h14.0757l27.176-54.352,27.3155,54.352h13.9363l-41.2518-82.5035Z"/></svg>